<svg id="svg" version="1.1" xmlns="http://www.w3.org/2000/svg" xmlns:xlink="http://www.w3.org/1999/xlink" width="32" height="32" viewBox="0, 0, 400, 400"><g id="svgg"><path id="path0" d="M190.142 0.074 C 190.110 0.103,189.146 0.176,188.000 0.237 C 186.854 0.298,185.204 0.416,184.333 0.499 C 183.463 0.582,182.037 0.696,181.167 0.752 C 180.296 0.807,179.471 0.881,179.333 0.915 C 179.196 0.949,178.633 1.022,178.083 1.076 C 177.533 1.131,176.896 1.211,176.667 1.254 C 176.438 1.297,175.800 1.371,175.250 1.418 C 174.099 1.517,173.450 1.604,172.167 1.830 C 171.662 1.918,170.875 2.032,170.417 2.082 C 169.066 2.230,168.470 2.320,167.500 2.526 C 166.996 2.632,166.433 2.710,166.250 2.697 C 166.067 2.685,165.692 2.744,165.417 2.828 C 165.142 2.913,164.627 3.024,164.272 3.076 C 163.918 3.128,163.578 3.202,163.517 3.240 C 163.456 3.277,163.071 3.348,162.661 3.397 C 162.252 3.445,161.354 3.609,160.667 3.760 C 159.979 3.911,159.248 4.057,159.042 4.086 C 157.877 4.246,157.324 4.380,157.234 4.526 C 157.084 4.769,157.136 4.791,158.911 5.253 C 159.814 5.487,160.631 5.728,160.727 5.787 C 160.824 5.847,161.080 5.915,161.297 5.938 C 161.514 5.961,161.780 6.046,161.887 6.127 C 161.995 6.207,162.421 6.370,162.833 6.489 C 163.246 6.608,163.733 6.767,163.917 6.844 C 164.100 6.921,164.625 7.110,165.083 7.266 C 166.999 7.915,167.609 8.146,168.083 8.398 C 168.358 8.545,168.666 8.665,168.766 8.666 C 168.867 8.666,169.189 8.786,169.482 8.932 C 169.775 9.079,170.105 9.217,170.216 9.240 C 170.476 9.295,170.991 9.511,172.379 10.148 C 173.000 10.433,173.542 10.667,173.583 10.667 C 173.721 10.667,177.126 12.246,177.500 12.484 C 177.637 12.572,178.425 12.964,179.250 13.357 C 180.075 13.749,181.012 14.230,181.333 14.425 C 181.654 14.620,182.742 15.215,183.750 15.745 C 185.421 16.625,186.319 17.158,188.009 18.275 C 188.335 18.491,188.660 18.667,188.732 18.667 C 188.803 18.667,189.174 18.880,189.556 19.140 C 189.938 19.400,190.588 19.831,191.000 20.098 C 191.412 20.365,191.895 20.715,192.073 20.875 C 192.251 21.035,192.453 21.167,192.523 21.167 C 192.671 21.167,194.781 22.603,195.201 22.989 C 195.357 23.132,195.867 23.512,196.335 23.833 C 196.803 24.154,197.612 24.742,198.134 25.141 C 198.656 25.539,199.299 26.026,199.563 26.224 C 199.826 26.422,200.183 26.715,200.354 26.875 C 200.526 27.035,200.738 27.167,200.825 27.167 C 200.912 27.167,201.043 27.262,201.117 27.378 C 201.190 27.494,201.887 28.110,202.667 28.747 C 203.446 29.384,204.346 30.145,204.667 30.439 C 204.987 30.734,205.438 31.134,205.667 31.330 C 207.681 33.052,211.148 36.442,213.500 38.990 C 214.463 40.032,215.485 41.117,215.772 41.401 C 216.364 41.984,217.380 43.163,218.000 43.985 C 218.229 44.288,218.604 44.745,218.833 45.000 C 219.063 45.255,219.438 45.710,219.667 46.011 C 219.896 46.312,220.161 46.639,220.256 46.738 C 220.351 46.836,220.651 47.217,220.923 47.583 C 221.707 48.642,221.735 48.676,222.042 48.965 C 222.202 49.117,222.333 49.330,222.333 49.440 C 222.333 49.549,222.396 49.664,222.473 49.694 C 222.549 49.725,222.869 50.127,223.183 50.587 C 223.498 51.047,224.110 51.885,224.544 52.449 C 224.978 53.013,225.333 53.539,225.333 53.619 C 225.333 53.698,225.555 54.022,225.827 54.340 C 226.098 54.657,226.323 54.971,226.327 55.038 C 226.334 55.177,227.716 57.296,228.036 57.659 C 228.154 57.793,228.344 58.093,228.458 58.326 C 228.573 58.559,228.814 58.975,228.995 59.250 C 229.176 59.525,229.477 60.012,229.664 60.333 C 230.188 61.234,230.379 61.546,230.702 62.035 C 230.866 62.283,231.000 62.602,231.000 62.743 C 231.000 62.884,231.066 63.000,231.146 63.000 C 231.227 63.000,231.391 63.244,231.512 63.542 C 231.632 63.840,231.784 64.121,231.848 64.167 C 231.981 64.261,232.106 64.504,234.458 69.218 C 235.398 71.101,236.167 72.688,236.167 72.745 C 236.167 72.802,236.417 73.389,236.723 74.049 C 237.029 74.710,237.562 75.962,237.907 76.833 C 238.251 77.704,238.638 78.616,238.767 78.859 C 238.895 79.102,239.000 79.454,239.000 79.641 C 239.000 79.828,239.073 80.025,239.162 80.081 C 239.289 80.159,239.656 81.164,239.741 81.667 C 239.749 81.712,239.800 81.825,239.855 81.917 C 239.936 82.050,240.505 83.662,240.591 84.000 C 240.603 84.046,240.659 84.196,240.716 84.333 C 240.843 84.640,241.570 87.004,242.023 88.583 C 242.207 89.225,242.464 90.087,242.593 90.500 C 242.885 91.430,243.608 94.243,243.728 94.917 C 243.777 95.192,243.927 95.829,244.062 96.333 C 244.198 96.837,244.342 97.513,244.383 97.833 C 244.424 98.154,244.572 98.904,244.711 99.500 C 245.163 101.437,246.261 108.704,246.411 110.750 C 246.550 112.645,246.686 114.066,246.754 114.333 C 246.821 114.597,246.932 116.872,247.087 121.167 C 247.172 123.507,246.949 131.526,246.765 132.750 C 246.655 133.482,246.482 135.258,246.401 136.500 C 246.338 137.456,246.093 139.268,245.486 143.250 C 245.073 145.965,244.233 150.303,244.005 150.903 C 243.922 151.121,243.808 151.626,243.750 152.025 C 243.693 152.424,243.533 153.125,243.394 153.583 C 243.255 154.042,243.105 154.642,243.060 154.917 C 243.016 155.192,242.831 155.904,242.650 156.500 C 242.105 158.292,241.692 159.681,241.313 161.000 C 241.116 161.688,240.901 162.325,240.836 162.417 C 240.771 162.508,240.620 162.958,240.500 163.417 C 240.380 163.875,240.229 164.325,240.164 164.417 C 240.100 164.508,239.892 165.033,239.702 165.583 C 239.024 167.551,238.623 168.586,238.480 168.742 C 238.399 168.829,238.333 169.028,238.333 169.184 C 238.333 169.341,238.189 169.757,238.013 170.109 C 237.837 170.462,237.454 171.345,237.162 172.072 C 236.871 172.799,236.572 173.511,236.498 173.655 C 235.769 175.073,235.000 176.747,235.000 176.914 C 235.000 177.028,234.850 177.312,234.667 177.545 C 234.483 177.779,234.332 178.070,234.330 178.193 C 234.328 178.316,234.179 178.604,234.000 178.833 C 233.821 179.063,233.671 179.362,233.667 179.500 C 233.663 179.637,233.513 179.938,233.333 180.167 C 233.154 180.396,233.006 180.700,233.004 180.844 C 233.002 180.987,232.847 181.268,232.660 181.469 C 232.473 181.669,232.369 181.833,232.429 181.833 C 232.489 181.833,232.402 182.040,232.236 182.292 C 232.069 182.544,231.797 183.012,231.631 183.333 C 231.311 183.951,231.104 184.298,230.614 185.041 C 230.447 185.293,230.365 185.500,230.431 185.500 C 230.497 185.500,230.434 185.631,230.290 185.792 C 230.146 185.952,229.778 186.543,229.472 187.104 C 229.167 187.665,228.784 188.303,228.622 188.521 C 228.143 189.166,227.167 190.688,227.167 190.790 C 227.167 190.843,226.979 191.131,226.750 191.431 C 226.521 191.732,226.333 192.024,226.333 192.081 C 226.333 192.138,225.904 192.762,225.379 193.467 C 224.854 194.173,224.423 194.789,224.420 194.837 C 224.418 194.885,224.248 195.106,224.042 195.327 C 223.835 195.548,223.667 195.779,223.667 195.839 C 223.667 195.900,223.518 196.129,223.336 196.349 C 222.824 196.971,222.768 197.045,222.334 197.667 C 222.111 197.987,221.850 198.341,221.755 198.453 C 221.511 198.741,221.317 198.993,220.759 199.750 C 220.489 200.117,220.216 200.454,220.154 200.500 C 220.092 200.546,219.760 200.958,219.418 201.417 C 219.076 201.875,218.711 202.326,218.606 202.418 C 218.502 202.511,218.083 202.998,217.676 203.502 C 217.269 204.005,216.731 204.642,216.481 204.917 C 216.231 205.192,215.627 205.859,215.138 206.400 C 213.706 207.986,207.517 214.161,206.269 215.250 C 205.638 215.800,204.918 216.438,204.668 216.667 C 203.689 217.565,202.275 218.757,202.019 218.900 C 201.871 218.983,201.454 219.339,201.092 219.692 C 200.730 220.045,200.353 220.333,200.254 220.333 C 200.155 220.333,199.813 220.578,199.495 220.878 C 199.177 221.178,198.610 221.629,198.236 221.882 C 197.862 222.134,197.396 222.489,197.201 222.670 C 197.007 222.852,196.769 223.000,196.674 223.000 C 196.578 223.000,196.500 223.060,196.500 223.133 C 196.500 223.206,196.202 223.450,195.838 223.675 C 195.474 223.900,195.174 224.140,195.171 224.208 C 195.169 224.277,195.089 224.333,194.993 224.333 C 194.829 224.333,194.641 224.464,194.089 224.958 C 193.962 225.073,193.777 225.167,193.679 225.167 C 193.580 225.167,193.500 225.242,193.500 225.333 C 193.500 225.425,193.413 225.500,193.307 225.500 C 193.201 225.500,192.716 225.800,192.230 226.167 C 191.743 226.535,191.155 226.922,190.923 227.028 C 190.690 227.133,190.500 227.283,190.500 227.360 C 190.500 227.437,190.423 227.500,190.329 227.500 C 190.177 227.500,188.715 228.419,188.226 228.823 C 188.121 228.909,187.990 228.934,187.934 228.879 C 187.879 228.823,187.833 228.854,187.833 228.947 C 187.833 229.040,187.290 229.398,186.625 229.744 C 185.960 230.089,185.304 230.470,185.166 230.591 C 185.029 230.711,184.729 230.894,184.500 230.997 C 184.271 231.100,183.813 231.349,183.483 231.550 C 182.285 232.281,182.167 232.343,182.167 232.245 C 182.167 232.189,181.960 232.283,181.708 232.453 C 181.456 232.623,181.025 232.869,180.750 232.999 C 180.475 233.129,180.137 233.327,180.000 233.439 C 179.862 233.551,179.691 233.643,179.619 233.643 C 179.486 233.643,175.468 235.567,174.250 236.214 C 173.883 236.409,173.560 236.544,173.531 236.514 C 173.502 236.484,173.239 236.573,172.947 236.711 C 172.150 237.090,171.089 237.537,171.041 237.515 C 171.017 237.504,170.626 237.684,170.171 237.914 C 169.716 238.145,169.276 238.333,169.193 238.333 C 169.109 238.333,168.788 238.439,168.479 238.568 C 168.170 238.697,167.842 238.818,167.750 238.836 C 167.658 238.854,167.305 239.011,166.965 239.185 C 166.625 239.358,166.209 239.500,166.040 239.500 C 165.871 239.500,165.662 239.568,165.575 239.652 C 165.488 239.735,165.042 239.914,164.583 240.050 C 164.125 240.186,163.356 240.455,162.875 240.646 C 162.394 240.838,162.000 240.965,162.000 240.929 C 162.000 240.893,161.531 241.033,160.958 241.241 C 160.385 241.449,159.879 241.619,159.833 241.619 C 159.787 241.619,159.300 241.757,158.750 241.925 C 158.200 242.093,157.634 242.243,157.491 242.258 C 157.349 242.273,156.839 242.415,156.359 242.575 C 155.879 242.734,155.395 242.881,155.284 242.901 C 155.174 242.921,154.671 243.059,154.167 243.207 C 153.662 243.355,153.025 243.516,152.750 243.565 C 152.475 243.613,151.950 243.732,151.583 243.828 C 150.781 244.038,147.005 244.825,146.369 244.914 C 146.120 244.949,145.317 245.090,144.583 245.227 C 143.850 245.364,142.875 245.522,142.417 245.579 C 141.958 245.636,141.433 245.709,141.250 245.742 C 140.489 245.878,138.349 246.151,137.417 246.230 C 136.867 246.276,135.742 246.393,134.917 246.489 C 131.301 246.910,115.824 247.145,115.222 246.787 C 115.146 246.742,114.398 246.656,113.559 246.596 C 112.721 246.535,111.709 246.441,111.309 246.386 C 110.910 246.331,110.433 246.287,110.250 246.288 C 110.067 246.289,108.904 246.147,107.667 245.971 C 106.429 245.795,105.079 245.615,104.667 245.571 C 104.254 245.527,103.392 245.381,102.750 245.247 C 102.108 245.112,101.266 244.963,100.879 244.916 C 100.492 244.869,99.667 244.711,99.046 244.566 C 98.425 244.420,97.767 244.280,97.583 244.254 C 97.400 244.229,96.725 244.080,96.083 243.923 C 95.442 243.766,94.702 243.601,94.439 243.556 C 94.177 243.511,93.511 243.330,92.959 243.154 C 92.408 242.977,91.835 242.831,91.687 242.828 C 91.462 242.824,90.531 242.558,87.333 241.582 C 87.196 241.540,86.521 241.346,85.833 241.151 C 85.146 240.956,84.508 240.740,84.417 240.671 C 84.325 240.602,83.800 240.411,83.250 240.246 C 82.700 240.080,82.173 239.887,82.078 239.816 C 81.984 239.745,81.721 239.653,81.495 239.611 C 81.269 239.570,80.352 239.232,79.458 238.860 C 78.565 238.487,77.833 238.217,77.833 238.258 C 77.833 238.300,77.553 238.184,77.211 238.000 C 76.868 237.817,76.488 237.667,76.365 237.667 C 76.243 237.667,75.811 237.472,75.405 237.234 C 74.999 236.996,74.667 236.852,74.667 236.914 C 74.667 236.976,74.414 236.871,74.105 236.680 C 73.797 236.489,73.449 236.333,73.332 236.333 C 73.160 236.333,66.405 233.034,65.500 232.509 C 64.864 232.139,62.819 230.992,61.917 230.499 C 61.367 230.199,60.542 229.711,60.083 229.415 C 59.625 229.119,58.887 228.661,58.443 228.397 C 57.025 227.554,54.720 226.055,54.500 225.834 C 54.328 225.660,53.343 225.000,53.257 225.000 C 53.208 225.000,52.540 224.531,51.772 223.958 C 51.005 223.385,50.207 222.804,49.999 222.667 C 49.791 222.529,49.134 222.023,48.539 221.542 C 47.944 221.060,47.411 220.665,47.354 220.664 C 47.264 220.662,46.805 220.296,45.841 219.460 C 45.708 219.345,45.108 218.848,44.508 218.356 C 43.908 217.865,43.298 217.340,43.152 217.190 C 43.007 217.040,42.569 216.654,42.179 216.333 C 40.199 214.706,34.461 209.088,32.411 206.770 C 31.773 206.047,31.100 205.297,30.916 205.103 C 30.471 204.631,28.502 202.296,28.083 201.743 C 27.900 201.501,27.634 201.178,27.492 201.026 C 26.973 200.470,25.833 199.034,25.833 198.937 C 25.833 198.843,25.695 198.663,24.944 197.778 C 24.775 197.579,24.515 197.210,24.366 196.958 C 24.217 196.706,24.036 196.500,23.964 196.500 C 23.892 196.500,23.833 196.391,23.833 196.258 C 23.833 196.125,23.738 195.957,23.622 195.883 C 23.506 195.810,23.038 195.188,22.582 194.500 C 22.126 193.813,21.658 193.150,21.542 193.029 C 21.426 192.907,21.246 192.649,21.143 192.456 C 21.040 192.263,20.888 192.025,20.806 191.927 C 20.664 191.757,20.282 191.163,19.030 189.167 C 18.714 188.662,18.327 188.063,18.170 187.833 C 18.014 187.604,17.603 186.892,17.257 186.250 C 16.911 185.608,16.543 185.028,16.439 184.961 C 16.335 184.894,16.318 184.837,16.401 184.836 C 16.484 184.834,16.439 184.702,16.301 184.542 C 15.875 184.045,11.959 176.444,11.127 174.500 C 10.990 174.179,10.636 173.354,10.340 172.667 C 10.045 171.979,9.699 171.172,9.573 170.873 C 9.446 170.573,9.235 170.086,9.104 169.789 C 8.801 169.104,8.628 168.642,8.571 168.364 C 8.546 168.243,8.370 167.813,8.180 167.407 C 7.989 167.002,7.833 166.597,7.833 166.507 C 7.833 166.418,7.727 166.098,7.597 165.797 C 7.314 165.144,6.792 163.676,6.512 162.750 C 6.402 162.383,6.251 161.933,6.176 161.750 C 6.048 161.432,5.420 159.394,4.981 157.867 C 4.616 156.600,4.640 156.545,3.761 160.750 C 3.627 161.392,3.439 162.367,3.343 162.917 C 3.248 163.467,3.092 164.292,2.998 164.750 C 2.904 165.208,2.790 165.883,2.744 166.250 C 2.671 166.830,2.571 167.435,2.234 169.333 C 2.194 169.563,2.131 170.050,2.094 170.417 C 2.058 170.783,1.941 171.646,1.835 172.333 C 1.556 174.142,1.533 174.313,1.422 175.417 C 1.366 175.967,1.181 177.542,1.010 178.917 C 0.840 180.292,0.691 181.867,0.680 182.417 C 0.669 182.967,0.621 183.717,0.573 184.083 C -0.157 189.652,-0.157 210.181,0.573 215.750 C 0.621 216.117,0.669 216.867,0.680 217.417 C 0.691 217.967,0.840 219.542,1.010 220.917 C 1.181 222.292,1.366 223.867,1.422 224.417 C 1.477 224.967,1.548 225.604,1.580 225.833 C 1.611 226.063,1.686 226.625,1.746 227.083 C 1.806 227.542,1.892 228.045,1.937 228.202 C 1.982 228.359,2.051 228.847,2.090 229.286 C 2.130 229.724,2.195 230.271,2.235 230.500 C 2.275 230.729,2.387 231.367,2.484 231.917 C 2.581 232.467,2.698 233.217,2.744 233.583 C 2.790 233.950,2.904 234.625,2.998 235.083 C 3.145 235.800,3.288 236.575,3.550 238.083 C 3.637 238.585,3.989 240.243,4.346 241.833 C 4.521 242.612,4.695 243.438,4.733 243.667 C 4.834 244.273,5.482 246.947,5.764 247.918 C 5.897 248.377,6.037 248.977,6.075 249.251 C 6.114 249.526,6.273 250.162,6.429 250.667 C 6.586 251.171,6.735 251.733,6.761 251.917 C 6.814 252.283,7.383 254.319,7.762 255.500 C 7.895 255.912,8.035 256.400,8.074 256.583 C 8.112 256.767,8.289 257.367,8.465 257.917 C 8.642 258.467,8.957 259.517,9.165 260.250 C 9.372 260.983,9.594 261.658,9.658 261.750 C 9.721 261.842,9.870 262.254,9.988 262.667 C 10.188 263.367,10.279 263.636,10.829 265.167 C 10.944 265.487,11.130 266.050,11.241 266.417 C 11.352 266.783,11.520 267.271,11.614 267.500 C 11.708 267.729,12.030 268.592,12.329 269.417 C 12.628 270.242,12.985 271.170,13.121 271.479 C 13.257 271.789,13.387 272.127,13.410 272.229 C 13.433 272.332,13.584 272.717,13.746 273.083 C 13.908 273.450,14.058 273.825,14.079 273.917 C 14.100 274.008,14.241 274.362,14.392 274.703 C 14.543 275.044,14.667 275.398,14.667 275.490 C 14.667 275.581,14.800 275.903,14.962 276.203 C 15.125 276.504,15.431 277.200,15.641 277.750 C 15.852 278.300,16.207 279.106,16.430 279.542 C 16.652 279.977,16.801 280.333,16.760 280.333 C 16.674 280.333,17.529 282.255,18.578 284.417 C 19.858 287.057,22.361 292.059,22.789 292.833 C 23.016 293.246,23.579 294.296,24.039 295.167 C 24.498 296.037,25.131 297.200,25.444 297.750 C 25.757 298.300,26.056 298.881,26.109 299.042 C 26.162 299.202,26.258 299.333,26.322 299.333 C 26.386 299.333,26.541 299.596,26.667 299.917 C 26.793 300.238,26.951 300.500,27.020 300.500 C 27.088 300.500,27.194 300.657,27.255 300.849 C 27.316 301.041,27.572 301.510,27.824 301.891 C 28.076 302.272,28.425 302.844,28.599 303.164 C 28.774 303.483,29.010 303.844,29.125 303.967 C 29.240 304.090,29.333 304.298,29.333 304.429 C 29.333 304.560,29.396 304.667,29.472 304.667 C 29.548 304.667,29.715 304.873,29.842 305.125 C 29.970 305.377,30.358 306.020,30.704 306.553 C 31.050 307.087,31.333 307.561,31.333 307.606 C 31.333 307.652,31.521 307.935,31.750 308.235 C 31.979 308.536,32.167 308.843,32.167 308.918 C 32.167 308.994,32.281 309.174,32.421 309.319 C 32.781 309.694,33.500 310.818,33.500 311.007 C 33.500 311.095,33.577 311.167,33.672 311.167 C 33.766 311.167,33.889 311.284,33.944 311.427 C 34.079 311.778,35.230 313.485,36.387 315.050 C 36.907 315.754,37.333 316.372,37.333 316.422 C 37.333 316.473,37.521 316.717,37.750 316.964 C 37.979 317.211,38.167 317.510,38.167 317.629 C 38.167 317.747,38.279 317.887,38.417 317.940 C 38.554 317.992,38.667 318.140,38.667 318.268 C 38.667 318.396,38.723 318.500,38.792 318.500 C 38.860 318.500,39.120 318.822,39.367 319.214 C 39.615 319.607,40.009 320.107,40.242 320.326 C 40.476 320.545,40.667 320.786,40.667 320.860 C 40.667 320.935,40.776 321.128,40.910 321.290 C 41.044 321.451,41.836 322.446,42.670 323.500 C 43.504 324.554,44.313 325.567,44.468 325.750 C 44.622 325.933,45.364 326.833,46.117 327.750 C 48.300 330.408,48.528 330.676,49.587 331.826 C 50.138 332.426,50.963 333.336,51.420 333.849 C 55.252 338.155,62.171 345.108,65.751 348.250 C 66.378 348.800,67.084 349.428,67.320 349.645 C 67.557 349.862,68.081 350.312,68.486 350.645 C 68.891 350.978,69.498 351.512,69.836 351.833 C 70.174 352.154,70.668 352.582,70.933 352.785 C 71.199 352.987,71.619 353.324,71.867 353.535 C 72.115 353.745,72.468 354.033,72.651 354.175 C 72.835 354.317,73.232 354.656,73.534 354.929 C 73.836 355.202,74.382 355.648,74.747 355.921 C 75.112 356.194,75.562 356.540,75.747 356.691 C 77.227 357.895,78.043 358.523,78.639 358.918 C 79.021 359.171,79.333 359.432,79.333 359.499 C 79.333 359.566,79.825 359.938,80.427 360.327 C 81.028 360.716,81.701 361.195,81.923 361.392 C 82.144 361.589,82.571 361.923,82.871 362.135 C 83.171 362.347,83.942 362.890,84.583 363.342 C 85.225 363.794,85.841 364.239,85.951 364.332 C 86.062 364.424,86.196 364.500,86.250 364.500 C 86.304 364.500,86.745 364.800,87.231 365.167 C 87.716 365.533,88.197 365.833,88.299 365.833 C 88.400 365.833,88.543 365.933,88.617 366.055 C 88.690 366.176,89.181 366.531,89.708 366.843 C 90.235 367.156,90.667 367.469,90.667 367.539 C 90.667 367.609,90.774 367.667,90.905 367.667 C 91.036 367.667,91.242 367.760,91.364 367.875 C 91.784 368.270,93.441 369.333,93.637 369.333 C 93.745 369.333,93.833 369.394,93.833 369.469 C 93.833 369.544,94.077 369.732,94.375 369.888 C 94.673 370.044,95.292 370.406,95.750 370.692 C 96.643 371.250,97.309 371.642,98.500 372.310 C 98.912 372.541,99.289 372.786,99.337 372.855 C 99.384 372.923,99.609 373.060,99.837 373.158 C 100.064 373.257,100.513 373.499,100.833 373.697 C 101.849 374.322,102.729 374.820,103.417 375.160 C 103.783 375.340,104.683 375.825,105.417 376.236 C 106.801 377.013,113.089 380.164,115.417 381.247 C 117.280 382.115,117.638 382.276,120.205 383.406 C 120.547 383.556,120.864 383.680,120.910 383.682 C 120.986 383.684,122.557 384.366,123.750 384.914 C 124.025 385.041,124.888 385.386,125.667 385.682 C 126.446 385.978,127.177 386.292,127.292 386.381 C 127.406 386.469,127.500 386.497,127.500 386.443 C 127.500 386.390,128.100 386.603,128.833 386.917 C 129.567 387.231,130.167 387.444,130.167 387.390 C 130.167 387.336,130.272 387.380,130.400 387.486 C 130.528 387.592,130.809 387.712,131.025 387.753 C 131.240 387.793,131.585 387.903,131.792 387.997 C 132.593 388.360,133.017 388.509,136.083 389.505 C 137.825 390.071,139.625 390.669,140.083 390.834 C 140.942 391.144,142.749 391.696,143.134 391.767 C 143.339 391.804,144.691 392.190,146.583 392.752 C 147.676 393.077,149.175 393.467,150.417 393.751 C 150.967 393.876,151.829 394.094,152.333 394.234 C 153.368 394.522,155.372 395.000,156.000 395.109 C 156.229 395.149,156.591 395.212,156.804 395.249 C 157.018 395.286,157.430 395.393,157.721 395.486 C 158.012 395.580,158.512 395.689,158.833 395.728 C 159.154 395.767,159.979 395.927,160.667 396.082 C 161.354 396.238,162.211 396.395,162.570 396.431 C 162.929 396.466,163.360 396.539,163.527 396.592 C 163.694 396.645,164.037 396.722,164.290 396.764 C 164.543 396.806,165.087 396.910,165.500 396.996 C 166.652 397.236,168.949 397.589,170.417 397.750 C 171.153 397.832,172.139 397.986,173.625 398.253 C 173.877 398.298,174.571 398.373,175.167 398.419 C 175.762 398.464,176.438 398.536,176.667 398.578 C 176.896 398.620,177.496 398.697,178.000 398.750 C 178.504 398.803,179.104 398.878,179.333 398.917 C 179.563 398.956,180.387 399.031,181.167 399.083 C 182.798 399.193,186.031 399.464,187.250 399.593 C 188.894 399.767,209.094 399.833,211.167 399.671 C 212.313 399.582,214.188 399.432,215.333 399.338 C 216.479 399.244,217.979 399.129,218.667 399.082 C 219.354 399.035,220.179 398.964,220.500 398.923 C 222.011 398.733,223.995 398.498,224.750 398.420 C 225.799 398.312,226.286 398.247,227.921 397.999 C 228.643 397.890,229.463 397.779,229.742 397.753 C 230.021 397.727,230.963 397.578,231.833 397.422 C 232.704 397.266,233.642 397.113,233.917 397.082 C 234.192 397.051,235.017 396.905,235.750 396.756 C 236.483 396.608,237.346 396.452,237.667 396.410 C 237.987 396.367,238.700 396.224,239.250 396.093 C 239.800 395.961,240.512 395.813,240.833 395.764 C 241.154 395.715,241.660 395.603,241.958 395.516 C 242.256 395.428,242.500 395.387,242.500 395.424 C 242.500 395.461,242.706 395.412,242.958 395.315 C 243.210 395.217,243.642 395.115,243.917 395.087 C 244.192 395.059,244.867 394.912,245.417 394.760 C 245.967 394.608,246.695 394.447,247.034 394.403 C 247.374 394.359,247.912 394.214,248.230 394.081 C 248.547 393.948,249.057 393.809,249.362 393.770 C 249.667 393.732,250.338 393.579,250.852 393.429 C 251.366 393.279,251.929 393.127,252.102 393.091 C 252.275 393.055,252.904 392.871,253.500 392.682 C 254.096 392.493,254.737 392.337,254.925 392.335 C 255.113 392.334,255.338 392.266,255.425 392.184 C 255.512 392.102,255.921 391.956,256.333 391.860 C 257.501 391.587,264.102 389.521,265.333 389.043 C 265.471 388.989,265.621 388.933,265.667 388.917 C 265.712 388.901,265.900 388.833,266.083 388.765 C 266.399 388.649,267.054 388.413,269.875 387.399 C 270.540 387.160,271.281 386.861,271.523 386.734 C 271.764 386.607,272.102 386.480,272.273 386.451 C 272.443 386.422,272.958 386.229,273.417 386.022 C 273.875 385.815,274.700 385.493,275.250 385.307 C 275.800 385.122,276.325 384.910,276.417 384.838 C 276.620 384.677,278.636 383.843,279.041 383.752 C 279.202 383.715,279.539 383.575,279.791 383.439 C 280.207 383.215,282.084 382.349,282.917 381.997 C 284.432 381.356,289.614 378.832,290.833 378.140 C 290.971 378.062,291.196 377.954,291.333 377.899 C 291.471 377.845,291.921 377.626,292.333 377.411 C 292.746 377.197,293.421 376.848,293.833 376.636 C 294.246 376.424,294.621 376.203,294.667 376.146 C 294.712 376.089,295.313 375.762,296.000 375.419 C 296.688 375.077,297.389 374.673,297.559 374.523 C 297.729 374.373,297.899 374.270,297.936 374.294 C 298.001 374.337,298.370 374.146,299.083 373.701 C 299.267 373.587,299.604 373.401,299.833 373.288 C 300.449 372.984,301.904 372.115,302.000 371.995 C 302.046 371.938,302.308 371.776,302.583 371.637 C 303.137 371.355,304.749 370.372,306.564 369.209 C 307.216 368.791,307.770 368.462,307.795 368.478 C 307.820 368.494,308.002 368.355,308.201 368.170 C 308.400 367.985,308.627 367.833,308.705 367.833 C 308.783 367.833,308.938 367.754,309.049 367.657 C 309.159 367.560,309.506 367.316,309.820 367.115 C 310.133 366.914,310.508 366.674,310.653 366.581 C 311.510 366.032,311.926 365.745,312.000 365.652 C 312.046 365.594,312.308 365.422,312.583 365.270 C 312.858 365.118,313.421 364.731,313.833 364.409 C 314.246 364.088,314.715 363.781,314.875 363.727 C 315.035 363.672,315.167 363.569,315.167 363.496 C 315.167 363.424,315.485 363.176,315.875 362.945 C 316.617 362.505,317.011 362.218,317.915 361.458 C 318.215 361.206,318.536 361.000,318.629 361.000 C 318.722 361.000,318.841 360.888,318.894 360.750 C 318.946 360.613,319.072 360.500,319.173 360.500 C 319.274 360.500,319.970 360.013,320.720 359.417 C 323.231 357.423,324.073 356.762,326.243 355.083 C 326.599 354.808,327.040 354.415,327.225 354.208 C 327.409 354.002,327.655 353.833,327.772 353.833 C 327.888 353.833,328.043 353.729,328.117 353.602 C 328.190 353.475,328.685 353.018,329.217 352.586 C 329.749 352.154,330.351 351.640,330.555 351.442 C 330.758 351.245,331.366 350.708,331.905 350.250 C 332.444 349.792,333.080 349.239,333.318 349.022 C 333.555 348.805,334.306 348.130,334.985 347.522 C 338.569 344.314,344.922 337.962,347.342 335.167 C 347.857 334.571,348.577 333.765,348.941 333.375 C 350.434 331.777,351.703 330.330,352.854 328.914 C 353.523 328.090,354.223 327.257,354.410 327.063 C 354.790 326.667,355.024 326.378,355.747 325.413 C 356.021 325.049,356.358 324.613,356.497 324.445 C 356.636 324.277,356.900 323.960,357.083 323.739 C 358.109 322.507,361.515 317.988,362.290 316.833 C 362.628 316.329,363.001 315.857,363.119 315.783 C 363.237 315.710,363.333 315.541,363.333 315.408 C 363.333 315.275,363.391 315.167,363.462 315.167 C 363.533 315.167,363.732 314.904,363.905 314.583 C 364.078 314.262,364.282 314.000,364.360 314.000 C 364.437 314.000,364.500 313.913,364.500 313.807 C 364.500 313.701,364.819 313.196,365.208 312.685 C 365.598 312.174,365.954 311.680,366.000 311.587 C 366.184 311.210,367.091 309.909,367.248 309.794 C 367.341 309.727,367.358 309.671,367.286 309.669 C 367.215 309.668,367.459 309.257,367.828 308.757 C 368.198 308.257,368.500 307.808,368.500 307.760 C 368.500 307.645,369.690 305.774,369.831 305.667 C 369.892 305.621,369.990 305.471,370.050 305.333 C 370.110 305.196,370.330 304.805,370.538 304.466 C 370.746 304.126,371.207 303.376,371.561 302.799 C 371.915 302.222,372.431 301.337,372.706 300.833 C 372.982 300.329,373.328 299.729,373.476 299.500 C 373.797 299.001,373.990 298.659,374.507 297.667 C 374.723 297.254,374.946 296.879,375.004 296.833 C 375.062 296.787,375.246 296.487,375.412 296.167 C 375.986 295.061,376.850 293.415,377.118 292.917 C 377.266 292.642,377.460 292.270,377.549 292.092 C 377.638 291.913,378.395 290.413,379.231 288.758 C 380.608 286.032,381.482 284.200,382.356 282.208 C 382.527 281.819,382.811 281.181,382.987 280.792 C 383.317 280.063,383.863 278.815,383.917 278.667 C 383.933 278.621,384.071 278.304,384.223 277.964 C 384.376 277.623,384.500 277.293,384.500 277.230 C 384.500 277.168,384.676 276.734,384.891 276.267 C 385.602 274.721,385.868 274.087,385.921 273.811 C 385.950 273.662,386.129 273.216,386.320 272.822 C 386.511 272.427,386.667 272.036,386.667 271.952 C 386.667 271.869,386.774 271.564,386.905 271.275 C 387.037 270.986,387.256 270.412,387.392 270.000 C 387.528 269.587,387.988 268.313,388.415 267.167 C 388.842 266.021,389.227 264.898,389.272 264.672 C 389.317 264.446,389.412 264.183,389.484 264.089 C 389.556 263.994,389.747 263.429,389.909 262.833 C 390.070 262.237,390.263 261.675,390.337 261.583 C 390.411 261.492,390.488 261.342,390.507 261.250 C 390.575 260.929,390.626 260.742,390.917 259.750 C 391.078 259.200,391.211 258.712,391.212 258.667 C 391.213 258.621,391.358 258.171,391.536 257.667 C 391.713 257.162,391.892 256.563,391.934 256.333 C 391.976 256.104,392.121 255.631,392.257 255.282 C 392.393 254.933,392.547 254.383,392.598 254.059 C 392.650 253.735,392.807 253.158,392.947 252.777 C 393.087 252.395,393.229 251.888,393.262 251.648 C 393.294 251.409,393.435 250.880,393.573 250.471 C 393.712 250.063,393.941 249.209,394.082 248.573 C 394.224 247.937,394.383 247.267,394.435 247.083 C 394.488 246.900,394.590 246.450,394.661 246.083 C 394.731 245.717,394.872 245.079,394.972 244.667 C 395.482 242.569,395.883 240.734,395.950 240.191 C 395.992 239.857,396.130 239.169,396.258 238.661 C 396.386 238.154,396.533 237.442,396.586 237.078 C 396.639 236.714,396.792 235.892,396.928 235.250 C 397.063 234.608,397.244 233.558,397.330 232.917 C 397.416 232.275,397.568 231.262,397.669 230.667 C 397.770 230.071,397.877 229.321,397.907 229.000 C 397.937 228.679,398.113 227.367,398.298 226.083 C 398.483 224.800,398.725 222.887,398.835 221.833 C 398.946 220.779,399.064 219.773,399.097 219.597 C 399.131 219.422,399.195 218.634,399.240 217.847 C 399.349 215.933,399.511 213.717,399.595 213.000 C 400.034 209.245,400.034 190.588,399.595 186.833 C 399.511 186.117,399.349 183.900,399.240 181.986 C 399.195 181.199,399.131 180.411,399.097 180.236 C 399.064 180.060,398.946 179.054,398.835 178.000 C 398.725 176.946,398.483 175.033,398.298 173.750 C 398.113 172.467,397.937 171.154,397.907 170.833 C 397.877 170.512,397.770 169.762,397.669 169.167 C 397.568 168.571,397.416 167.558,397.330 166.917 C 397.244 166.275,397.063 165.225,396.928 164.583 C 396.792 163.942,396.639 163.119,396.586 162.755 C 396.533 162.391,396.386 161.679,396.258 161.172 C 396.130 160.665,395.992 159.977,395.950 159.643 C 395.883 159.099,395.482 157.265,394.972 155.167 C 394.872 154.754,394.731 154.117,394.661 153.750 C 394.590 153.383,394.488 152.933,394.435 152.750 C 394.383 152.567,394.224 151.896,394.082 151.261 C 393.941 150.625,393.712 149.770,393.573 149.362 C 393.435 148.954,393.294 148.424,393.262 148.185 C 393.229 147.946,393.087 147.438,392.947 147.057 C 392.807 146.675,392.650 146.098,392.598 145.774 C 392.547 145.450,392.393 144.900,392.257 144.551 C 392.121 144.202,391.976 143.729,391.934 143.500 C 391.892 143.271,391.700 142.633,391.507 142.083 C 391.314 141.533,391.168 141.083,391.183 141.083 C 391.211 141.083,390.694 139.284,390.537 138.833 C 390.489 138.696,390.426 138.508,390.397 138.417 C 389.999 137.152,389.611 136.017,389.484 135.750 C 389.397 135.567,389.296 135.267,389.258 135.083 C 389.220 134.900,388.841 133.813,388.414 132.667 C 387.988 131.521,387.528 130.246,387.392 129.833 C 387.256 129.421,387.037 128.847,386.905 128.558 C 386.774 128.269,386.667 127.965,386.667 127.881 C 386.667 127.798,386.511 127.406,386.320 127.012 C 386.129 126.617,385.950 126.172,385.921 126.022 C 385.868 125.747,385.602 125.113,384.891 123.567 C 384.676 123.099,384.500 122.666,384.500 122.603 C 384.500 122.540,384.376 122.210,384.223 121.870 C 384.071 121.529,383.933 121.212,383.917 121.167 C 383.863 121.019,383.317 119.770,382.987 119.042 C 382.811 118.652,382.527 118.015,382.356 117.625 C 381.482 115.633,380.608 113.801,379.231 111.075 C 378.395 109.421,377.638 107.921,377.549 107.742 C 377.460 107.563,377.266 107.192,377.118 106.917 C 376.970 106.642,376.575 105.892,376.240 105.250 C 375.444 103.726,375.095 103.094,374.489 102.083 C 374.214 101.625,373.943 101.138,373.886 101.000 C 373.829 100.862,373.692 100.638,373.582 100.500 C 373.472 100.362,373.117 99.763,372.795 99.167 C 372.472 98.571,371.917 97.611,371.562 97.034 C 370.274 94.941,370.158 94.746,370.050 94.500 C 369.990 94.362,369.892 94.212,369.831 94.167 C 369.690 94.059,368.500 92.188,368.500 92.073 C 368.500 92.025,368.198 91.576,367.828 91.076 C 367.459 90.576,367.215 90.166,367.286 90.164 C 367.358 90.163,367.341 90.106,367.248 90.039 C 367.091 89.925,366.184 88.623,366.000 88.247 C 365.954 88.153,365.598 87.659,365.208 87.148 C 364.819 86.638,364.500 86.133,364.500 86.027 C 364.500 85.920,364.437 85.833,364.360 85.833 C 364.282 85.833,364.078 85.571,363.905 85.250 C 363.732 84.929,363.533 84.667,363.462 84.667 C 363.391 84.667,363.333 84.558,363.333 84.425 C 363.333 84.292,363.237 84.123,363.119 84.050 C 363.001 83.977,362.628 83.504,362.290 83.000 C 361.515 81.845,358.109 77.326,357.083 76.094 C 356.900 75.874,356.636 75.556,356.497 75.388 C 356.358 75.221,356.021 74.785,355.747 74.420 C 355.024 73.455,354.790 73.166,354.410 72.771 C 354.223 72.576,353.523 71.743,352.854 70.919 C 351.703 69.504,350.434 68.057,348.941 66.458 C 348.577 66.069,347.857 65.262,347.340 64.667 C 344.799 61.735,338.268 55.207,335.088 52.418 C 334.355 51.776,333.560 51.063,333.320 50.833 C 333.081 50.604,332.447 50.042,331.912 49.583 C 331.376 49.125,330.784 48.599,330.594 48.414 C 330.405 48.229,329.800 47.715,329.250 47.270 C 328.700 46.826,328.190 46.358,328.117 46.231 C 328.043 46.104,327.888 46.000,327.772 46.000 C 327.655 46.000,327.409 45.831,327.225 45.625 C 327.040 45.419,326.599 45.025,326.243 44.750 C 324.900 43.711,323.558 42.665,322.833 42.092 C 322.421 41.765,321.596 41.118,321.000 40.654 C 320.404 40.189,319.785 39.702,319.623 39.571 C 319.462 39.440,319.253 39.333,319.160 39.333 C 319.066 39.333,318.946 39.221,318.894 39.083 C 318.841 38.946,318.722 38.833,318.629 38.833 C 318.536 38.833,318.215 38.627,317.915 38.375 C 317.011 37.616,316.617 37.328,315.875 36.888 C 315.485 36.657,315.167 36.409,315.167 36.337 C 315.167 36.265,315.035 36.161,314.875 36.107 C 314.715 36.052,314.246 35.745,313.833 35.424 C 313.421 35.103,312.858 34.716,312.583 34.563 C 312.308 34.411,312.046 34.239,312.000 34.181 C 311.926 34.088,311.510 33.801,310.653 33.252 C 310.508 33.159,310.133 32.919,309.820 32.718 C 309.506 32.517,309.159 32.274,309.049 32.177 C 308.938 32.079,308.783 32.000,308.705 32.000 C 308.627 32.000,308.417 31.865,308.240 31.699 C 308.062 31.533,307.860 31.385,307.790 31.368 C 307.720 31.352,307.158 31.009,306.540 30.606 C 305.072 29.648,303.212 28.516,302.583 28.197 C 302.308 28.057,302.046 27.896,302.000 27.838 C 301.907 27.722,300.481 26.868,299.833 26.541 C 299.604 26.425,299.117 26.151,298.750 25.931 C 298.383 25.712,297.333 25.139,296.417 24.659 C 295.500 24.179,294.712 23.740,294.667 23.685 C 294.588 23.589,294.213 23.388,292.250 22.388 C 291.792 22.154,291.304 21.896,291.167 21.814 C 291.029 21.732,290.804 21.623,290.667 21.573 C 290.529 21.523,290.229 21.381,290.000 21.258 C 288.804 20.614,284.530 18.548,283.083 17.914 C 281.614 17.269,280.218 16.621,279.630 16.311 C 279.288 16.131,278.951 15.991,278.880 16.001 C 278.745 16.019,277.437 15.480,276.600 15.062 C 276.334 14.929,275.696 14.678,275.183 14.504 C 274.670 14.330,273.875 14.019,273.417 13.812 C 272.958 13.605,272.443 13.411,272.273 13.382 C 272.102 13.353,271.764 13.226,271.523 13.099 C 271.281 12.973,270.558 12.681,269.917 12.451 C 268.523 11.951,266.547 11.239,266.083 11.068 C 265.900 11.001,265.712 10.933,265.667 10.917 C 265.621 10.901,265.471 10.844,265.333 10.791 C 264.759 10.568,261.264 9.435,259.250 8.820 C 258.058 8.456,256.708 8.043,256.250 7.903 C 255.792 7.763,255.229 7.607,255.000 7.557 C 254.771 7.507,254.096 7.318,253.500 7.137 C 252.904 6.956,252.275 6.779,252.102 6.742 C 251.929 6.706,251.366 6.554,250.852 6.405 C 250.338 6.255,249.667 6.101,249.362 6.063 C 249.057 6.025,248.547 5.885,248.230 5.752 C 247.912 5.619,247.374 5.475,247.034 5.430 C 246.695 5.386,245.967 5.225,245.417 5.074 C 244.867 4.922,244.192 4.775,243.917 4.747 C 243.642 4.719,243.210 4.616,242.958 4.519 C 242.706 4.421,242.500 4.372,242.500 4.409 C 242.500 4.446,242.256 4.405,241.958 4.318 C 241.660 4.230,241.154 4.118,240.833 4.069 C 240.512 4.020,239.800 3.872,239.250 3.741 C 238.700 3.609,237.987 3.466,237.667 3.424 C 237.346 3.381,236.483 3.225,235.750 3.077 C 235.017 2.929,234.192 2.782,233.917 2.751 C 233.642 2.721,232.704 2.568,231.833 2.412 C 230.963 2.255,230.021 2.106,229.742 2.080 C 229.463 2.054,228.643 1.943,227.921 1.834 C 226.286 1.586,225.799 1.522,224.750 1.413 C 223.995 1.336,222.011 1.101,220.500 0.910 C 220.179 0.870,219.354 0.798,218.667 0.751 C 217.979 0.704,216.479 0.589,215.333 0.495 C 214.188 0.402,212.313 0.254,211.167 0.168 C 209.316 0.029,190.288 -0.056,190.142 0.074 " stroke="none" fill="#fca41c" fill-rule="evenodd"></path><path id="path1" d="" stroke="none" fill="#100a41c" fill-rule="evenodd"></path><path id="path2" d="" stroke="none" fill="#100a41c" fill-rule="evenodd"></path><path id="path3" d="" stroke="none" fill="#100a41c" fill-rule="evenodd"></path><path id="path4" d="" stroke="none" fill="#100a41c" fill-rule="evenodd"></path></g></svg>